# xmcd
#
# Track frame offsets: 
#        150
#        13881
#        25535
#        38663
#        49822
#        69055
#        83475
#        98661
#        110838
#        126784
#        141910
#        160057
#        181930
#        197174
#        218135
#        244488
#        267592
#        279825
#        316992
#
# Disc length: 4486 seconds
#
# Revision: 0
# Processed by: cddbd v1.5.2PL0 Copyright (c) Steve Scherf et al.
# Submitted via: ExactAudioCopy v1.0b3
#
DISCID=05118413
DTITLE=Reverend Freakchild - Chaos And Country Blues
DYEAR=2013
DGENRE=Country
TTITLE0=Preachin' Blues
TTITLE1=Rollin' And Tumblin'
TTITLE2=In My Time Of Dying
TTITLE3=Can't Judge A Book By The Cover
TTITLE4=Tightrope
TTITLE5=I Can't Be Satisfied
TTITLE6=You Gotta Move
TTITLE7=Mystery Train
TTITLE8=Little Red Rooster
TTITLE9=Come On In My Kitchen
TTITLE10=See That My Grave Is Kept Clean
TTITLE11=Death Don't Have No Mercy
TTITLE12=Death Bells
TTITLE13=Good Morning Reverend
TTITLE14=I Am The Light Of This World
TTITLE15=Baby Let Me Follow You Down
TTITLE16=Intro To Sweet Sweet You
TTITLE17=Sweet Sweet You
TTITLE18=Pure Religion
EXTD=
EXTT0=
EXTT1=
EXTT2=
EXTT3=
EXTT4=
EXTT5=
EXTT6=
EXTT7=
EXTT8=
EXTT9=
EXTT10=
EXTT11=
EXTT12=
EXTT13=
EXTT14=
EXTT15=
EXTT16=
EXTT17=
EXTT18=
PLAYORDER=
